<?xml version="1.0" encoding="iso-8859-1"?>
<!-- Uploaded to: SVG Repo, www.svgrepo.com, Generator: SVG Repo Mixer Tools -->
<!DOCTYPE svg PUBLIC "-//W3C//DTD SVG 1.1//EN" "http://www.w3.org/Graphics/SVG/1.1/DTD/svg11.dtd">
<svg height="800px" width="800px" version="1.1" id="Capa_1" xmlns="http://www.w3.org/2000/svg" xmlns:xlink="http://www.w3.org/1999/xlink"
	 viewBox="0 0 61.166 61.166" xml:space="preserve">
<g>
	<path style="fill:#f5f5f5;" d="M61.051,39.05c-0.053-0.468-0.073-0.944-0.259-1.378c-0.067-0.156-0.2-0.175-0.318-0.126
		c-0.039-0.129-0.143-0.237-0.315-0.245c-0.471-0.021-0.942-0.042-1.413-0.063c-0.142-7.605-0.756-15.17-5.708-21.308
		C47.931,9.602,41.34,6.058,33.298,5.798c1.014-2.008-0.248-5.308-2.877-4.645c-2.177,0.549-2.797,3.211-1.423,4.755
		c-6.762,0.513-13.803,2.595-18.665,7.339c-5.902,5.759-8.189,14.048-8.613,22.068c-0.391-0.002-0.783-0.01-1.174-0.011
		c-0.222-0.129-0.566-0.037-0.544,0.288c0.107,1.581,0.179,3.172,0.374,4.746c0.017,0.136,0.106,0.208,0.207,0.249
		c0.046,0.056,0.115,0.095,0.209,0.097c7.913,0.202,15.833,0.285,23.755,0.322c2.464,2.638,3.109,5.831,3.049,9.17
		c-3.838-0.409-8.045,0.154-11.675,1.441c-1.958,0.694-3.637,1.734-3.702,3.97c-0.004,0.137,0.107,0.22,0.224,0.233
		c-0.626,4.556,14.255,4.279,16.369,4.268c3.954-0.021,18.107,0.676,17.665-5.916c0.008-0.026,0.02-0.05,0.022-0.081
		c0.162-2.142-1.522-3.081-3.415-3.434c-3.095-0.579-6.878-0.839-10.001-0.167c0.219-3.425,0.885-6.836,3.25-9.463
		c8.073,0.007,16.145,0.006,24.21,0.055c0.142,0.001,0.237-0.068,0.294-0.16c0.135,0.065,0.329-0.007,0.33-0.194
		C61.169,40.168,61.114,39.606,61.051,39.05z M30.62,1.877c0.994-0.225,1.895,0.496,2.179,1.422c0.269,0.879-0.053,1.657-0.29,2.484
		c-0.14-0.001-0.277-0.009-0.418-0.008c-0.8,0.007-1.611,0.039-2.426,0.089C28.551,4.599,28.712,2.308,30.62,1.877z M10.22,14.232
		c5.519-5.693,14.167-7.727,21.871-7.769c8.12-0.044,14.688,3.24,19.896,9.403c5.211,6.167,5.799,13.616,6.122,21.344
		c-1.699-0.076-3.398-0.152-5.098-0.229c-0.041-3.219-0.096-6.48-0.412-9.685c0.49-0.195,0.881-0.575,0.98-1.109
		c0.064-0.343-0.007-0.69-0.187-0.969c1.044-0.587,0.93-2.129,0.008-2.78c-1.039-0.733-2.255-0.335-3.071,0.475
		c-0.224-0.653-1.101-1.173-1.711-1.235c-0.308-1.508-1.615-2.716-3.231-2.444c-1.528,0.257-2.484,1.931-1.708,3.321
		c-0.213,0.139-0.431,0.26-0.63,0.244c-0.255-0.02-0.602-0.456-0.903-0.534c-0.233-0.06-0.458-0.082-0.693-0.017
		c-0.496,0.138-0.756,0.549-0.712,1.02c-0.017-0.002-0.033-0.008-0.05-0.01c0.018-0.037,0.031-0.078,0.024-0.122
		c-0.32-2.067-2.864-2.155-3.962-0.747c-0.748-0.892-1.997-0.963-2.718-0.227c0.423-1.684-1.397-2.91-2.941-2.872
		c-1.414,0.035-3.228,1.238-2.869,2.788c-0.756-0.211-1.624,0.046-2.084,0.813c-0.462-0.85-1.627-1.285-2.549-1.2
		c-0.911,0.085-1.677,0.619-2.13,1.376c-0.102-0.576-0.439-1.095-1.049-1.265c-0.351-0.097-0.751-0.055-1.078,0.101
		c-0.2,0.095-0.706,0.674-0.771,0.671c-0.072-0.003-0.326-0.233-0.559-0.43c0.772-1.589-0.443-3.34-2.199-3.494
		c-1.573-0.138-4.146,1.413-3.354,3.243c-0.273,0.089-0.538,0.223-0.77,0.429c-0.217,0.192-0.373,0.529-0.718,0.515
		c-0.085-0.003-0.156-0.175-0.242-0.198c-0.305-0.08-0.503-0.221-0.842-0.206c-0.563,0.025-0.997,0.323-1.256,0.791
		c-0.144-0.092-0.348-0.123-0.536-0.104c-0.48,0.049-0.967,0.349-1.211,0.766c-0.322,0.553-0.036,1.402,0.505,1.649
		c-0.752,0.547-1.073,1.693-0.264,2.378c0.304,0.257,0.629,0.344,0.948,0.318c0.004,2.372,0.082,4.774,0.155,7.143
		c-2.043-0.031-4.086-0.046-6.128-0.058C2.991,27.71,4.696,19.932,10.22,14.232z M8.47,28.136c0.403-0.155,0.773-0.47,1.045-0.841
		c0.16,0.79,0.851,1.458,1.68,1.531c0.844,0.074,1.77-0.543,1.98-1.371c0.053,0.008,0.107,0.01,0.161,0.015
		c0.089,0.519,0.484,0.927,1.062,0.98c0.706,0.065,1.218-0.422,1.514-1.003c0.931,0.889,2.424,0.724,2.925-0.507
		c0.018,0.002,0.034,0.005,0.052,0.006c0.313,1.594,3.346,1.121,3.91-0.37c0.697,0.54,1.693,0.471,2.357-0.14
		c0.74,1.027,2.19,1.203,3.02,0.41c0.669,1.327,2.494,1.398,3.396,0.125c0.966,1.198,2.821,1.287,3.587-0.021
		c0.072,0.153,0.181,0.296,0.283,0.398c0.31,0.308,0.773,0.487,1.21,0.455c0.578-0.042,1.176-0.501,1.435-1.066
		c0.296,0.338,0.841,0.531,1.299,0.567c0.628,0.049,1.52-0.257,1.814-0.856c0.334,0.606,0.974,1.019,1.702,0.97
		c0.679-0.045,1.375-0.552,1.593-1.211c0.742,1.164,2.158,1.166,2.999,0.23c0.662,1.119,2.439,1.181,2.777-0.148
		c0.019,0.011,0.04,0.017,0.06,0.027c-0.196,0.312-0.07,0.706,0.294,0.914c0.468,0.268,1.145,0.286,1.682,0.156
		c-0.197,3.171-0.088,6.397,0.087,9.568c-14.519-0.659-29.071-1.335-43.602-1.566C9.029,33.048,8.937,30.459,8.47,28.136z
		 M51.59,26.979c-0.263-0.004-1.225-0.146-1.036-0.566c0.278,0.091,0.568,0.089,0.817-0.076c0.149-0.098,0.08-0.299-0.086-0.318
		c-0.247-0.027-0.48,0.023-0.725-0.051c-0.296-0.09-0.527-0.302-0.688-0.56c-0.116-0.185-0.376-0.024-0.288,0.169
		c0.071,0.157,0.19,0.312,0.334,0.45c-0.466,0.722-1.62,1.601-2.141-0.107c-0.06-0.197-0.339-0.245-0.445-0.058
		c-0.613,1.074-1.878,1.063-2.635,0.177c-0.042-0.049-0.099-0.044-0.146-0.019c0.018-0.101,0.026-0.205,0.02-0.31
		c-0.014-0.222-0.299-0.252-0.376-0.051c-0.25,0.647-0.604,1.258-1.381,1.32c-0.728,0.059-1.341-0.488-1.538-1.153
		c-0.003-0.015,0.001-0.027-0.002-0.042c-0.052-0.224-0.335-0.174-0.407,0c-0.234,0.567-0.448,0.938-1.123,1.026
		c-0.448,0.058-1.327-0.033-1.525-0.546c0.009-0.123,0.004-0.246-0.028-0.369c-0.001-0.003-0.004-0.004-0.005-0.007
		c0-0.003,0-0.004,0-0.007c0.024-0.115-0.128-0.199-0.199-0.11c-0.053,0.004-0.103,0.024-0.127,0.08
		c-0.269,0.619-0.424,1.363-1.241,1.45c-0.361,0.038-0.714-0.104-0.963-0.367c-0.135-0.143-0.188-0.32-0.309-0.458
		c0.022-0.069,0.058-0.121,0.075-0.195c0.053-0.229-0.278-0.393-0.395-0.167c-0.697,1.351-2.377,1.81-3.238,0.273
		c-0.095-0.17-0.367-0.177-0.46,0c-0.225,0.698-0.716,0.898-1.475,0.601c-0.715,0.251-1.192,0.1-1.439-0.438
		c0.051-0.075,0.109-0.139,0.151-0.224c0.322,0.087,0.656,0.095,0.949-0.04c0.177-0.082,0.063-0.31-0.089-0.328
		c-0.239-0.028-0.468-0.005-0.705-0.024c0.004-0.016,0.013-0.026,0.017-0.042c0.053-0.222-0.27-0.38-0.382-0.161
		c-0.019,0.037-0.046,0.066-0.066,0.102c-0.185-0.071-0.363-0.157-0.53-0.268c-0.135-0.09-0.297,0.117-0.175,0.226
		c0.11,0.098,0.249,0.183,0.388,0.266c-0.008,0.025-0.022,0.048-0.017,0.079c0.006,0.04,0.025,0.068,0.033,0.106
		c-0.743,0.807-1.938,0.917-2.603-0.277c-0.094-0.169-0.302-0.132-0.403,0c-0.558,0.726-1.432,0.742-2.103,0.289
		c0.011-0.093,0.02-0.187,0.012-0.286c-0.017-0.205-0.295-0.253-0.363-0.049c-0.025,0.077-0.058,0.142-0.087,0.214
		c-0.002,0.006-0.005,0.01-0.006,0.016c-0.216,0.534-0.524,0.925-1.108,1.162c-0.559,0.228-1.78,0.339-2.075-0.384
		c0.183-0.029,0.359-0.083,0.503-0.184c0.145-0.101,0.061-0.338-0.123-0.292c-0.274,0.068-0.497,0.082-0.716,0.06
		c-0.04-0.043-0.104-0.057-0.158-0.027c-0.174-0.031-0.351-0.076-0.558-0.139c-0.095-0.029-0.201,0.091-0.137,0.178
		c0.115,0.156,0.283,0.255,0.466,0.327c-0.574,0.898-1.778,1.119-2.51,0.161c-0.106-0.139-0.3-0.122-0.363,0.048
		c-0.089,0.38-0.298,0.649-0.628,0.805c-0.526,0.481-1.019,0.225-1.477-0.769c0.003-0.156-0.215-0.147-0.237-0.003
		c-0.017-0.01-0.033-0.021-0.05-0.031c-0.016-0.009-0.031-0.01-0.046-0.015c-0.001-0.029,0.006-0.056,0.002-0.086
		c-0.016-0.145-0.204-0.178-0.255-0.035c-0.267,0.742-0.765,1.454-1.647,1.445c-0.857-0.008-1.398-0.726-1.546-1.496
		c0.014-0.029,0.033-0.056,0.046-0.085c0.202,0.129,0.437,0.221,0.651,0.28c0.19,0.052,0.298-0.212,0.133-0.315
		c-0.202-0.125-0.444-0.242-0.689-0.297c-0.025-0.177-0.276-0.263-0.384-0.083c-0.246,0.411-0.642,1.068-1.137,1.306
		c0-0.001,0-0.003-0.001-0.004c-0.042-0.188-0.331-0.143-0.332,0.045c0,0.014,0.001,0.028,0.001,0.042
		c-0.193,0.01-0.396-0.045-0.61-0.214c-0.732-0.581-0.132-1.434,0.362-1.955c0.09-0.014,0.181-0.032,0.277-0.081
		c0.139-0.071,0.066-0.278-0.076-0.282c-0.549-0.016-1.001-0.551-0.703-1.088c0.109-0.197,0.298-0.338,0.499-0.429
		C7.9,23.673,8.48,23.464,8.524,23.63c0.034,0.128,0.251,0.144,0.275,0c0.003-0.017-0.006-0.026-0.005-0.041
		c0.013-0.013,0.029-0.013,0.039-0.033c0.189-0.361,0.622-0.695,1.046-0.693c0.37,0.002,0.685,0.41,0.995,0.467
		c0.159,0.029,0.14,0.061,0.343,0.02c0.271-0.055,0.347-0.275,0.536-0.458c0.859-0.83,2.405-0.893,2.684,0.505
		c0.012,0.061,0.047,0.092,0.083,0.12c-0.224,0.032-0.446,0.083-0.648,0.159c-0.195,0.074-0.122,0.375,0.088,0.319
		c0.56-0.151,1.031-0.037,1.583,0.036c0.197,0.026,0.258-0.277,0.098-0.364c-0.189-0.103-0.4-0.144-0.614-0.162
		c0.377-1.002,1.361-1.523,2.296-1.198c0.006,0.202,0.262,0.342,0.446,0.228c0.06,0.041,0.121,0.069,0.179,0.118
		c0.271,0.228,0.316,0.448,0.677,0.51c0.123,0.021,0.211-0.018,0.284-0.116c0.18-0.328,0.496-0.442,0.947-0.342
		c0.767-0.431,1.142-0.181,1.126,0.749c-0.001,0.158,0.115,0.235,0.237,0.245c0.057,0.109,0.244,0.146,0.317,0.015
		c0.459-0.822,1.207-1.439,2.186-1.465c0.98-0.026,1.491,0.542,2.187,1.103c0.011,0.009,0.026,0.008,0.038,0.015
		c0.044,0.126,0.245,0.188,0.309,0.04c0.577-1.329,2.389-1.332,2.816,0.117c0.023,0.079,0.074,0.12,0.131,0.141
		c-0.287-0.011-0.583,0.049-0.827,0.15c-0.18,0.075-0.112,0.369,0.083,0.302c0.542-0.187,0.898-0.014,1.413,0.122
		c0.145,0.038,0.244-0.14,0.144-0.247c-0.186-0.198-0.443-0.287-0.713-0.315c0.05-0.005,0.099-0.018,0.14-0.048
		c0.019-0.007,0.031-0.021,0.047-0.033c0.006-0.007,0.015-0.009,0.019-0.017c0.039-0.039,0.067-0.088,0.049-0.15
		c-0.284-0.994,1.928-1.031,2.329-0.993c0.695,0.065,1.002,0.395,1.425,0.898c0.07,0.084,0.194,0.058,0.26-0.015
		c0.064,0.031,0.147,0.017,0.179-0.074c0.42-1.173,2.161-1.492,2.812-0.334c0.089,0.159,0.322,0.152,0.413,0
		c0.943-1.573,2.618-1.048,3.368,0.339c-0.251,0.001-0.499,0.016-0.722,0.049c-0.175,0.026-0.136,0.326,0.042,0.311
		c0.669-0.058,1.195,0.151,1.831,0.271c0.196,0.037,0.304-0.207,0.135-0.321c-0.175-0.119-0.383-0.187-0.599-0.236
		c0.547-0.684,1.039-0.82,1.475-0.391c0.17,0.114,0.326,0.244,0.469,0.391c0.068,0.063,0.188,0.093,0.27,0.035
		c0.785-0.552,2.426-1.601,3.004-0.095c0.067,0.175,0.253,0.192,0.378,0.122c0.037,0.033,0.093,0.045,0.114-0.005
		c0.257-0.6,0.804-1.118,1.456-1.191c0.103,0.081,0.247,0.077,0.349,0.004c0.026,0.004,0.051,0.002,0.077,0.007
		c0.417,0.083,0.799,0.335,1.031,0.698c0.113,0.177,0.181,0.358,0.279,0.53c0,0.053,0.027,0.097,0.074,0.124
		c0.01,0.013,0.013,0.029,0.025,0.042c0.097,0.113,0.266,0.039,0.308-0.082c0.017-0.049,0.013-0.097,0.021-0.145
		c0.597-0.559,1.382-0.977,2.218-0.737c1.012,0.289,1.398,1.53,0.479,2.179c-0.019,0.014-0.018,0.033-0.033,0.048
		c-0.01-0.006-0.016-0.016-0.027-0.022c-0.28-0.15-0.516,0.255-0.248,0.425c0.594,0.378,0.32,1.205-0.197,1.506
		C52.268,26.934,51.918,26.984,51.59,26.979z M15.663,19.213c1.374,0.061,2.354,1.375,1.838,2.632
		c-0.351-0.121-0.724-0.166-1.089-0.101c-0.786,0.141-1.31,0.683-1.567,1.385c-0.242-0.979-1.124-1.426-2.002-1.319
		c-0.001-0.007,0.005-0.012,0.003-0.019C12.467,20.309,14.397,19.157,15.663,19.213z M28.601,22.226
		c0.235-1.432,1.043-2.457,2.657-2.393c1.44,0.057,2.371,1.058,2.262,2.491c-0.012,0.159,0.113,0.221,0.237,0.209
		c-0.071,0.127-0.138,0.258-0.183,0.413c-0.407-1.525-3.736-1.298-4.317-0.138C29.082,22.551,28.853,22.361,28.601,22.226z
		 M45.712,19.761c1.198-0.046,2.074,0.859,2.316,1.961c-0.645,0.153-1.169,0.638-1.364,1.275c-0.253-0.572-0.738-0.926-1.396-0.971
		c-0.372-0.026-0.711,0.059-1.054,0.202c-0.066,0.028-0.139,0.074-0.213,0.12C43.638,21.128,44.335,19.814,45.712,19.761z
		 M32.46,53.778c0.045,0.295,0.502,0.213,0.508-0.069c0.018-0.974,0.042-1.966,0.099-2.959c3.018,0.253,12.845-0.804,12.781,3.34
		c-0.001,0.062,0.014,0.112,0.037,0.155c-0.432,7.995-33.564,6.44-32.94,0.669c0.001-0.01-0.005-0.016-0.007-0.024
		c1.788-4.331,10.746-4.132,14.647-4.296c-0.038,1.075-0.141,2.162-0.278,3.25c-0.043,0.345,0.554,0.429,0.611,0.083
		c0.741-4.51,0.703-9.612-2.791-12.92c3.542,0.015,7.084,0.014,10.626,0.017C32.476,43.72,31.879,49.969,32.46,53.778z
		 M60.541,40.339c-19.845-0.087-39.725-0.525-59.567-0.231c-0.024-1.423-0.135-2.847-0.232-4.266
		c19.789,0.958,39.62,1.285,59.416,2.153c0.03,0.001,0.054-0.008,0.08-0.013c-0.018,0.418,0.087,0.864,0.156,1.271
		c0.062,0.369,0.135,0.737,0.221,1.101C60.591,40.349,60.57,40.339,60.541,40.339z"/>
</g>
</svg>