<?xml version="1.0" ?><!-- Uploaded to: SVG Repo, www.svgrepo.com, Generator: SVG Repo Mixer Tools -->
<svg width="800px" height="800px" viewBox="0 0 48 48" id="Layer_1" version="1.1" xml:space="preserve" xmlns="http://www.w3.org/2000/svg" xmlns:xlink="http://www.w3.org/1999/xlink"><style type="text/css">
	.st0{fill:#f5f5f5;}
</style><path class="st0" d="M18.414,35.087c-0.224-0.162-0.536-0.113-0.699,0.11c-0.163,0.223-0.113,0.536,0.11,0.699  c0.274,0.2,0.438,0.521,0.438,0.86c0,0.586-0.477,1.063-1.063,1.063c-0.276,0-0.5,0.224-0.5,0.5s0.224,0.5,0.5,0.5  c1.138,0,2.063-0.925,2.063-2.063C19.263,36.098,18.946,35.475,18.414,35.087z"/><path class="st0" d="M17.14,29.125c-0.224-0.162-0.535-0.114-0.699,0.11c-0.163,0.223-0.113,0.536,0.11,0.699  c0.274,0.2,0.438,0.521,0.438,0.86c0,0.586-0.477,1.063-1.063,1.063c-0.276,0-0.5,0.224-0.5,0.5s0.224,0.5,0.5,0.5  c1.138,0,2.063-0.926,2.063-2.063C17.989,30.137,17.671,29.513,17.14,29.125z"/><path class="st0" d="M17.086,24.014c-0.224-0.162-0.536-0.113-0.699,0.11c-0.163,0.224-0.113,0.536,0.11,0.699  c0.12,0.087,0.188,0.221,0.188,0.369c0,0.251-0.205,0.456-0.456,0.456c-0.276,0-0.5,0.224-0.5,0.5s0.224,0.5,0.5,0.5  c0.803,0,1.456-0.653,1.456-1.456C17.685,24.727,17.461,24.287,17.086,24.014z"/><path class="st0" d="M30.803,38.819c0.276,0,0.5-0.224,0.5-0.5s-0.224-0.5-0.5-0.5c-0.586,0-1.063-0.477-1.063-1.063  c0-0.339,0.164-0.661,0.438-0.86c0.223-0.163,0.272-0.476,0.11-0.699c-0.163-0.223-0.476-0.272-0.699-0.11  c-0.532,0.388-0.849,1.011-0.849,1.669C28.74,37.894,29.665,38.819,30.803,38.819z"/><path class="st0" d="M32.077,31.857c-0.586,0-1.063-0.477-1.063-1.063c0-0.339,0.164-0.66,0.438-0.86  c0.223-0.163,0.272-0.476,0.11-0.699c-0.164-0.224-0.475-0.271-0.699-0.11c-0.532,0.388-0.849,1.011-0.849,1.668  c0,1.138,0.926,2.063,2.063,2.063c0.276,0,0.5-0.224,0.5-0.5S32.354,31.857,32.077,31.857z"/><path class="st0" d="M31.773,26.647c0.276,0,0.5-0.224,0.5-0.5s-0.224-0.5-0.5-0.5c-0.251,0-0.456-0.205-0.456-0.456  c0-0.147,0.068-0.282,0.188-0.369c0.223-0.163,0.272-0.475,0.11-0.699c-0.163-0.223-0.476-0.271-0.699-0.11  c-0.375,0.273-0.599,0.713-0.599,1.177C30.317,25.994,30.97,26.647,31.773,26.647z"/><path class="st0" d="M30.438,22.406c-0.009,0-0.016-0.005-0.025-0.005c-0.009,0-0.017,0.003-0.025,0.003  c-0.089,0-0.179,0.003-0.267,0.008c-0.847-1.257-2.275-2.025-3.803-2.025c-0.83,0-1.625,0.217-2.317,0.63  c-0.693-0.413-1.487-0.63-2.317-0.63c-1.528,0-2.956,0.768-3.803,2.025c-0.087-0.005-0.175-0.008-0.263-0.008  c-0.009,0-0.017-0.003-0.026-0.003c-0.008,0-0.015,0.004-0.023,0.005c-2.522,0.015-4.569,2.065-4.569,4.586  c0,0.859,0.234,1.682,0.68,2.401c-0.446,0.72-0.68,1.545-0.68,2.407c0,1.481,0.725,2.875,1.915,3.731  c-0.138,0.437-0.208,0.897-0.208,1.372c0,2.534,2.059,4.596,4.589,4.596c0.402,0,0.803-0.054,1.194-0.16  c1.201,0.325,2.484,0.143,3.512-0.47c1.027,0.612,2.31,0.794,3.512,0.47c0.391,0.106,0.792,0.16,1.194,0.16  c2.531,0,4.589-2.062,4.589-4.596c0-0.475-0.07-0.935-0.208-1.372c1.19-0.856,1.915-2.25,1.915-3.731  c0-0.863-0.234-1.688-0.68-2.407c0.446-0.719,0.68-1.542,0.68-2.401C35.002,24.473,32.957,22.424,30.438,22.406z M20.634,40.342  c-0.095-0.029-0.197-0.029-0.292,0C20,40.447,19.647,40.5,19.294,40.5c-1.979,0-3.589-1.613-3.589-3.596  c0-0.486,0.092-0.949,0.274-1.377c0.001-0.003,0.001-0.005,0.002-0.008c0.561-1.341,1.862-2.207,3.315-2.207  c1.186,0,2.294,0.584,2.965,1.564c0.157,0.227,0.467,0.285,0.695,0.13c0.228-0.156,0.286-0.467,0.13-0.695  c-0.858-1.251-2.275-1.999-3.791-1.999c-1.653,0-3.147,0.879-3.963,2.279c-0.833-0.676-1.336-1.702-1.336-2.791  c0-0.769,0.237-1.499,0.687-2.111c0-0.001,0-0.002,0.001-0.002c0.675-0.926,1.761-1.479,2.905-1.479  c1.981,0,3.593,1.612,3.593,3.593c0,0.276,0.224,0.5,0.5,0.5s0.5-0.224,0.5-0.5c0-2.532-2.061-4.593-4.593-4.593  c-1.217,0-2.377,0.494-3.231,1.341c-0.234-0.481-0.361-1.009-0.361-1.556c0-1.979,1.613-3.589,3.596-3.589  c0.017,0,0.033,0.003,0.05,0.003c1.956,0.03,3.539,1.624,3.539,3.587c0,0.276,0.224,0.5,0.5,0.5s0.5-0.224,0.5-0.5  c0-2.047-1.356-3.765-3.21-4.356c0.674-0.78,1.659-1.25,2.71-1.25c0.655,0,1.275,0.181,1.817,0.508v18.086  C22.661,40.487,21.618,40.642,20.634,40.342z M32.668,34.59c-0.816-1.399-2.31-2.277-3.962-2.277c-1.515,0-2.932,0.747-3.79,1.999  c-0.156,0.228-0.099,0.539,0.129,0.695c0.228,0.157,0.539,0.1,0.695-0.129c0.672-0.979,1.781-1.564,2.966-1.564  c1.449,0,2.746,0.862,3.31,2.197c0.002,0.006,0.002,0.012,0.004,0.018c0.182,0.428,0.274,0.891,0.274,1.377  c0,1.983-1.61,3.596-3.589,3.596c-0.353,0-0.705-0.053-1.048-0.158c-0.047-0.015-0.097-0.022-0.146-0.022s-0.099,0.007-0.146,0.022  c-0.984,0.3-2.028,0.145-2.866-0.361V21.895c0.542-0.327,1.162-0.508,1.817-0.508c1.051,0,2.036,0.47,2.71,1.251  c-1.853,0.592-3.208,2.309-3.208,4.355c0,0.276,0.224,0.5,0.5,0.5s0.5-0.224,0.5-0.5c0-1.964,1.586-3.561,3.544-3.587  c0.014,0,0.028-0.003,0.043-0.003c1.983,0,3.596,1.61,3.596,3.589c0,0.547-0.126,1.074-0.36,1.555  c-0.854-0.845-2.014-1.339-3.23-1.339c-2.532,0-4.593,2.061-4.593,4.593c0,0.276,0.224,0.5,0.5,0.5s0.5-0.224,0.5-0.5  c0-1.981,1.612-3.593,3.593-3.593c1.142,0,2.227,0.552,2.902,1.476c0.001,0.002,0.001,0.004,0.002,0.005  c0.449,0.612,0.686,1.342,0.686,2.111C34.002,32.888,33.5,33.914,32.668,34.59z"/><path class="st0" d="M20.58,11.949c0,0.906,0.362,1.771,1,2.407v0.393c-0.566,0.119-1,0.599-1,1.199c0,0.689,0.561,1.25,1.25,1.25  h0.295v0.236c0,1.034,0.841,1.875,1.875,1.875s1.875-0.841,1.875-1.875v-0.236h0.295c0.689,0,1.25-0.561,1.25-1.25  c0-0.601-0.434-1.08-1-1.199v-0.393c0.638-0.636,1-1.501,1-2.407c0-1.886-1.534-3.42-3.42-3.42S20.58,10.063,20.58,11.949z   M24.875,17.436c0,0.482-0.393,0.875-0.875,0.875s-0.875-0.393-0.875-0.875v-0.236h1.75V17.436z M26.17,16.199h-0.795h-2.75H21.83  c-0.133,0-0.25-0.117-0.25-0.25s0.117-0.25,0.25-0.25h0.25h3.84h0.25c0.133,0,0.25,0.117,0.25,0.25S26.303,16.199,26.17,16.199z   M24,9.529c1.334,0,2.42,1.085,2.42,2.42c0,0.695-0.302,1.355-0.828,1.813c-0.109,0.095-0.172,0.232-0.172,0.377v0.56h-2.84v-0.56  c0-0.145-0.063-0.283-0.172-0.377c-0.526-0.457-0.828-1.117-0.828-1.813C21.58,10.615,22.666,9.529,24,9.529z"/><path class="st0" d="M24.5,7.75V7c0-0.276-0.224-0.5-0.5-0.5S23.5,6.724,23.5,7v0.75c0,0.276,0.224,0.5,0.5,0.5  S24.5,8.026,24.5,7.75z"/><path class="st0" d="M20.833,7.935c-0.195-0.195-0.512-0.195-0.707,0c-0.195,0.195-0.195,0.512,0,0.707l0.53,0.531  c0.098,0.098,0.226,0.146,0.354,0.146s0.256-0.049,0.354-0.146c0.195-0.195,0.195-0.512,0-0.707L20.833,7.935z"/><path class="st0" d="M27.097,7.935l-0.53,0.531c-0.195,0.195-0.195,0.512,0,0.707c0.098,0.098,0.226,0.146,0.354,0.146  s0.256-0.049,0.354-0.146l0.53-0.531c0.195-0.195,0.195-0.512,0-0.707C27.608,7.74,27.292,7.74,27.097,7.935z"/><path class="st0" d="M28.25,12.5H29c0.276,0,0.5-0.224,0.5-0.5s-0.224-0.5-0.5-0.5h-0.75c-0.276,0-0.5,0.224-0.5,0.5  S27.974,12.5,28.25,12.5z"/><path class="st0" d="M19.063,11.5c-0.276,0-0.5,0.224-0.5,0.5s0.224,0.5,0.5,0.5h0.75c0.276,0,0.5-0.224,0.5-0.5s-0.224-0.5-0.5-0.5  H19.063z"/></svg>