<?xml version="1.0" ?><!-- Uploaded to: SVG Repo, www.svgrepo.com, Generator: SVG Repo Mixer Tools -->
<svg width="800px" height="800px" viewBox="0 0 48 48" id="Layer_1" version="1.1" xml:space="preserve" xmlns="http://www.w3.org/2000/svg" xmlns:xlink="http://www.w3.org/1999/xlink"><style type="text/css">
	.st0{fill:#f5f5f5;}
</style><path class="st0" d="M14.776,30.957c-0.224-0.162-0.536-0.113-0.699,0.11c-0.163,0.223-0.113,0.536,0.11,0.699  c0.523,0.381,0.836,0.995,0.836,1.642c0,1.12-0.911,2.03-2.03,2.03c-0.276,0-0.5,0.224-0.5,0.5s0.224,0.5,0.5,0.5  c1.671,0,3.03-1.359,3.03-3.03C16.023,32.442,15.557,31.526,14.776,30.957z"/><path class="st0" d="M12.713,21.308c-0.223-0.163-0.536-0.114-0.698,0.109c-0.163,0.223-0.114,0.536,0.109,0.698  c0.523,0.382,0.836,0.996,0.836,1.643c0,1.12-0.911,2.031-2.031,2.031c-0.276,0-0.5,0.224-0.5,0.5s0.224,0.5,0.5,0.5  c1.671,0,3.031-1.359,3.031-3.031C13.961,22.793,13.495,21.877,12.713,21.308z"/><path class="st0" d="M12.626,13.033c-0.223-0.162-0.535-0.113-0.699,0.11c-0.163,0.223-0.113,0.536,0.11,0.699  c0.271,0.197,0.432,0.513,0.432,0.847c0,0.578-0.47,1.047-1.047,1.047c-0.276,0-0.5,0.224-0.5,0.5s0.224,0.5,0.5,0.5  c1.129,0,2.047-0.918,2.047-2.047C13.469,14.037,13.154,13.417,12.626,13.033z"/><path class="st0" d="M35.011,36.438c0.276,0,0.5-0.224,0.5-0.5s-0.224-0.5-0.5-0.5c-1.12,0-2.03-0.911-2.03-2.03  c0-0.647,0.313-1.261,0.836-1.642c0.223-0.163,0.272-0.476,0.11-0.699c-0.164-0.223-0.475-0.272-0.699-0.11  c-0.781,0.569-1.248,1.485-1.248,2.451C31.981,35.079,33.34,36.438,35.011,36.438z"/><path class="st0" d="M37.074,26.789c0.276,0,0.5-0.224,0.5-0.5s-0.224-0.5-0.5-0.5c-1.12,0-2.03-0.911-2.03-2.031  c0-0.646,0.313-1.261,0.836-1.643c0.223-0.163,0.272-0.475,0.109-0.698c-0.163-0.223-0.475-0.272-0.698-0.109  c-0.781,0.569-1.247,1.485-1.247,2.45C34.043,25.429,35.403,26.789,37.074,26.789z"/><path class="st0" d="M36.582,15.736c-0.577,0-1.047-0.47-1.047-1.047c0-0.333,0.161-0.65,0.431-0.847  c0.223-0.163,0.272-0.475,0.109-0.698c-0.162-0.223-0.475-0.273-0.698-0.109c-0.527,0.384-0.842,1.003-0.842,1.655  c0,1.129,0.918,2.047,2.047,2.047c0.276,0,0.5-0.224,0.5-0.5S36.858,15.736,36.582,15.736z"/><path class="st0" d="M34.402,10.486c-0.008,0-0.015-0.005-0.023-0.005c-0.142,0-0.281,0.013-0.421,0.021  c-0.07,0.004-0.142,0.003-0.211,0.009c-1.299-2.038-3.567-3.291-5.997-3.291c-1.351,0-2.64,0.37-3.751,1.073  c-1.111-0.703-2.4-1.073-3.751-1.073c-2.43,0-4.698,1.252-5.997,3.291c-0.057-0.005-0.116-0.004-0.174-0.008  c-0.151-0.01-0.301-0.023-0.454-0.023c-0.007,0-0.014,0.004-0.021,0.004C9.684,10.5,6.5,13.687,6.5,17.604  c0,1.397,0.399,2.733,1.159,3.887C6.899,22.644,6.5,23.984,6.5,25.387c0,2.373,1.2,4.603,3.158,5.918  c-0.261,0.74-0.394,1.526-0.394,2.343c0,3.931,3.194,7.129,7.119,7.129c0.649,0,1.299-0.091,1.933-0.27  c1.954,0.551,4.04,0.237,5.684-0.803c1.645,1.041,3.729,1.354,5.684,0.803c0.634,0.179,1.283,0.27,1.933,0.27  c3.925,0,7.119-3.198,7.119-7.129c0-0.817-0.132-1.603-0.393-2.343C40.3,29.99,41.5,27.76,41.5,25.387  c0-1.403-0.399-2.743-1.159-3.896c0.759-1.153,1.159-2.489,1.159-3.887C41.5,13.689,38.319,10.504,34.402,10.486z M18.462,39.509  c-0.096-0.029-0.196-0.029-0.292,0c-0.585,0.178-1.187,0.269-1.787,0.269c-3.374,0-6.119-2.75-6.119-6.129  c0-0.83,0.158-1.62,0.469-2.35c0.002-0.005,0.001-0.01,0.003-0.015c0.957-2.283,3.173-3.759,5.65-3.759  c2.021,0,3.911,0.997,5.055,2.666c0.156,0.228,0.467,0.286,0.695,0.13c0.228-0.156,0.286-0.467,0.13-0.695  c-1.331-1.941-3.529-3.1-5.88-3.1c-2.682,0-5.084,1.497-6.304,3.844C8.482,29.228,7.5,27.37,7.5,25.387  c0-1.311,0.405-2.556,1.171-3.601c0,0,0-0.001,0-0.001l0,0c1.15-1.579,3.002-2.522,4.953-2.522c3.377,0,6.125,2.748,6.125,6.125  c0,0.276,0.224,0.5,0.5,0.5s0.5-0.224,0.5-0.5c0-3.929-3.196-7.125-7.125-7.125c-2.026,0-3.956,0.879-5.3,2.373  C7.793,19.716,7.5,18.685,7.5,17.604c0-3.374,2.75-6.119,6.129-6.119c0.274,0,0.548,0.019,0.802,0.057  c2.996,0.397,5.317,2.962,5.317,6.065c0,0.276,0.224,0.5,0.5,0.5s0.5-0.224,0.5-0.5c0-3.335-2.306-6.134-5.406-6.906  c1.143-1.542,2.962-2.478,4.906-2.478c1.176,0,2.291,0.338,3.251,0.957v29.647C22.047,39.76,20.196,40.038,18.462,39.509z   M39.677,20.633c-1.344-1.493-3.272-2.37-5.297-2.37c-3.929,0-7.125,3.196-7.125,7.125c0,0.276,0.224,0.5,0.5,0.5s0.5-0.224,0.5-0.5  c0-3.377,2.748-6.125,6.125-6.125c1.947,0,3.795,0.94,4.946,2.513c0.002,0.003,0.001,0.007,0.003,0.01  c0.766,1.045,1.171,2.29,1.171,3.601c0,1.982-0.981,3.838-2.579,4.98c-1.221-2.346-3.623-3.842-6.304-3.842  c-2.351,0-4.549,1.159-5.88,3.1c-0.156,0.228-0.098,0.539,0.13,0.695c0.228,0.156,0.54,0.098,0.695-0.13  c1.144-1.669,3.034-2.666,5.055-2.666c2.472,0,4.683,1.47,5.643,3.745c0.003,0.009,0.002,0.019,0.006,0.029  c0.311,0.729,0.469,1.52,0.469,2.35c0,3.38-2.745,6.129-6.119,6.129c-0.6,0-1.201-0.091-1.787-0.269  c-0.048-0.015-0.097-0.022-0.146-0.022s-0.098,0.007-0.146,0.022c-1.733,0.528-3.585,0.252-5.038-0.682V9.179  c0.96-0.619,2.075-0.957,3.251-0.957c1.945,0,3.763,0.937,4.907,2.479c-3.098,0.773-5.402,3.571-5.402,6.905  c0,0.276,0.224,0.5,0.5,0.5s0.5-0.224,0.5-0.5c0-3.104,2.323-5.67,5.321-6.066c0.253-0.037,0.523-0.056,0.794-0.056  c3.38,0,6.129,2.745,6.129,6.119C40.5,18.684,40.208,19.714,39.677,20.633z"/></svg>