<?xml version="1.0" encoding="iso-8859-1"?>
<!-- Uploaded to: SVG Repo, www.svgrepo.com, Generator: SVG Repo Mixer Tools -->
<svg fill="#f5f5f5" height="800px" width="800px" version="1.1" id="Layer_1" xmlns="http://www.w3.org/2000/svg" xmlns:xlink="http://www.w3.org/1999/xlink" 
	 viewBox="0 0 492.308 492.308" xml:space="preserve">
<g>
	<g>
		<path d="M485.507,171.298L412.209,42.952h-71.942V0H152.065v42.952H80.122L6.642,171.635c-8.625,16.538-8.519,36.317,0.279,52.904
			c6.587,12.441,17.178,21.308,29.808,25.474v242.296H96.44h133.394h225.779V250.002c12.636-4.169,23.217-13.032,29.798-25.464
			C494.209,207.952,494.315,188.173,485.507,171.298z M171.757,19.692h148.817v23.26H171.757V19.692z M210.142,472.615h-94.01
			V320.394h94.01V472.615z M435.92,472.615H229.834V300.702H96.44v171.913H56.42v-220c18.909-0.863,35.501-10.76,45.451-25.538
			c10.413,15.471,28.083,25.673,48.097,25.673c20.014,0,37.684-10.202,48.097-25.673c10.416,15.471,28.091,25.673,48.105,25.673
			c20.013,0,37.682-10.2,48.096-25.671c10.414,15.471,28.084,25.671,48.096,25.671c20.014,0,37.688-10.202,48.105-25.673
			c9.949,14.781,26.54,24.68,45.453,25.538V472.615z M468.017,215.317c-5.24,9.875-14.337,16.24-25.019,17.481
			c-1.452,0.183-2.933,0.26-4.433,0.26c-21.087,0-38.25-17.163-38.25-38.25h-19.692c0,21.087-17.163,38.25-38.26,38.25
			c-21.087,0-38.25-17.163-38.25-38.25H284.42c0,21.087-17.163,38.25-38.25,38.25c-21.096,0-38.26-17.163-38.26-38.25h-19.692
			c0,21.087-17.164,38.25-38.25,38.25c-21.087,0-38.25-17.163-38.25-38.25H92.026c0,21.087-17.163,38.25-38.26,38.25
			c-1.5,0-2.981-0.077-4.471-0.26c-10.644-1.24-19.74-7.606-24.981-17.481c-5.76-10.865-5.837-23.788-0.394-34.25L91.545,62.644
			h60.519h188.202h60.519l67.442,118.086C473.853,191.529,473.776,204.452,468.017,215.317z"/>
	</g>
</g>
<g>
	<g>
		<path d="M264.786,300.702v98.221h134.221v-98.221H264.786z M379.315,379.231h-94.837v-58.837h94.837V379.231z"/>
	</g>
</g>
</svg>