<?xml version="1.0" encoding="UTF-8" ?>
<!DOCTYPE svg PUBLIC "-//W3C//DTD SVG 1.1//EN" "http://www.w3.org/Graphics/SVG/1.1/DTD/svg11.dtd">
<svg width="670pt" height="269pt" viewBox="0 0 670 269" version="1.1" xmlns="http://www.w3.org/2000/svg">
<g id="#fffff">
<path fill="#000" opacity="1.00" d=" M 509.87 15.93 C 523.22 7.78 540.58 6.76 554.87 13.08 C 570.34 19.69 581.61 34.76 583.93 51.39 L 583.42 51.63 C 580.73 52.81 578.16 54.21 575.63 55.67 C 575.03 45.08 570.01 34.89 562.06 27.89 C 551.98 18.68 537.05 15.23 523.95 19.14 C 507.35 23.70 494.79 39.81 494.58 57.05 C 494.51 72.19 494.60 87.33 494.54 102.47 C 494.54 105.80 494.54 109.14 494.54 112.48 C 494.59 128.07 494.53 143.65 494.57 159.24 C 494.61 162.59 494.61 165.95 494.58 169.30 C 494.54 179.33 494.56 189.37 494.57 199.40 C 491.70 201.07 488.79 202.67 485.82 204.16 C 485.76 190.86 485.80 177.57 485.80 164.27 C 485.81 160.92 485.78 157.57 485.76 154.22 C 485.83 141.98 485.77 129.74 485.80 117.51 C 485.80 114.13 485.81 110.75 485.82 107.37 C 485.75 91.80 485.83 76.23 485.78 60.66 C 485.78 57.61 485.98 54.57 486.36 51.54 C 488.24 36.90 497.20 23.45 509.87 15.93 Z" />
<path fill="#000" opacity="1.00" d=" M 575.58 72.56 C 578.47 70.84 581.40 69.18 584.33 67.51 C 584.32 80.80 584.34 94.10 584.31 107.39 C 584.33 110.75 584.33 114.12 584.32 117.48 C 584.33 129.78 584.32 142.08 584.32 154.38 C 581.45 156.03 578.57 157.66 575.69 159.30 C 575.56 143.68 575.70 128.05 575.62 112.43 C 575.57 109.11 575.56 105.80 575.60 102.48 C 575.65 92.51 575.69 82.53 575.58 72.56 Z" />
<path fill="#000" opacity="1.00" d=" M 266.34 69.92 C 270.08 71.59 273.58 73.77 276.62 76.53 C 274.67 79.60 272.77 82.69 270.86 85.78 C 267.66 83.54 264.29 81.55 260.91 79.62 C 262.75 76.41 264.56 73.17 266.34 69.92 Z" />
<path fill="#000" opacity="1.00" d=" M 76.44 81.12 C 80.03 77.98 83.47 74.69 87.11 71.61 C 89.85 76.99 89.81 83.13 89.99 89.01 C 90.03 97.70 89.97 106.39 89.99 115.08 C 89.81 118.30 92.67 120.99 95.83 120.97 C 100.82 121.15 105.89 120.79 110.71 119.42 C 110.33 115.49 109.75 111.58 109.55 107.64 C 113.23 104.82 117.94 103.30 122.02 101.00 C 122.69 106.15 122.89 111.35 123.71 116.48 C 124.13 118.96 126.61 120.34 128.91 120.64 C 134.05 121.39 139.34 120.78 144.31 119.34 C 143.78 115.30 143.45 111.25 143.05 107.20 C 147.27 105.14 151.46 103.02 155.65 100.91 C 156.14 105.93 156.52 110.97 157.16 115.98 C 157.44 118.43 159.70 120.22 162.04 120.55 C 167.32 121.42 172.86 121.10 177.92 119.29 C 176.58 113.69 174.77 108.21 172.36 102.98 C 176.24 99.94 180.05 96.81 183.99 93.86 C 187.27 101.45 189.26 109.68 189.21 117.97 C 188.40 123.11 185.67 127.75 182.86 132.05 C 179.47 135.99 173.80 136.50 168.97 137.12 C 162.24 137.71 154.00 137.19 149.92 130.94 C 147.12 135.79 140.98 136.36 135.98 137.06 C 129.13 137.72 120.65 137.37 116.44 131.00 C 113.61 135.51 107.88 136.31 103.05 136.99 C 97.36 137.41 91.18 137.88 85.98 135.07 C 81.04 132.24 79.05 126.35 78.84 120.95 C 78.40 107.67 79.75 94.14 76.44 81.12 Z" />
<path fill="#000" opacity="1.00" d=" M 334.10 81.26 C 337.62 77.99 341.15 74.74 344.80 71.62 C 348.28 78.57 347.39 86.54 347.50 94.04 C 347.40 107.43 347.75 120.82 347.26 134.20 C 344.17 136.02 340.98 137.66 337.78 139.25 C 337.69 127.80 337.06 116.37 336.70 104.93 C 336.22 97.01 336.27 88.95 334.10 81.26 Z" />
<path fill="#000" opacity="1.00" d=" M 316.63 74.00 C 321.14 75.56 325.16 78.28 328.62 81.53 C 326.32 85.09 324.15 88.72 321.92 92.33 C 318.18 89.72 314.26 87.42 310.36 85.08 C 312.43 81.38 314.64 77.75 316.63 74.00 Z" />
<path fill="#000" opacity="1.00" d=" M 145.42 78.70 C 149.77 80.51 153.74 83.10 157.26 86.23 C 155.07 89.88 152.77 93.47 150.63 97.15 C 146.83 94.61 142.97 92.17 138.99 89.92 C 141.10 86.16 143.30 82.46 145.42 78.70 Z" />
<path fill="#000" opacity="1.00" d=" M 261.18 83.42 C 264.94 85.11 268.48 87.24 271.72 89.79 C 272.92 87.69 274.13 85.59 275.28 83.46 C 279.69 85.19 283.64 87.85 287.20 90.96 C 285.01 94.59 282.80 98.20 280.61 101.82 C 277.28 99.55 273.83 97.46 270.34 95.45 C 269.07 97.61 267.74 99.74 266.36 101.83 C 262.64 99.18 258.68 96.91 254.72 94.66 C 256.86 90.91 259.01 87.16 261.18 83.42 Z" />
<path fill="#000" opacity="1.00" d=" M 365.75 102.67 C 367.33 97.83 368.98 93.01 370.56 88.16 C 379.79 93.10 388.50 101.17 390.17 111.98 C 391.89 118.98 388.58 125.93 384.75 131.60 C 379.65 136.63 371.84 137.51 365.01 137.21 C 360.48 136.92 354.60 135.98 352.85 131.09 C 351.54 124.81 352.37 118.28 353.39 112.00 C 356.18 112.19 358.97 112.49 361.75 112.86 C 361.92 115.31 360.09 119.57 363.49 120.43 C 369.19 121.52 375.13 120.81 380.71 119.36 C 378.28 111.94 372.28 106.56 365.75 102.67 Z" />
<path fill="#000" opacity="1.00" d=" M 41.25 90.54 C 45.57 92.40 49.58 94.90 53.07 98.07 C 50.82 101.70 48.62 105.37 46.31 108.96 C 42.64 106.32 38.73 104.04 34.85 101.73 C 36.90 97.96 39.07 94.25 41.25 90.54 Z" />
<path fill="#000" opacity="1.00" d=" M 314.69 102.96 C 318.60 99.95 322.35 96.74 326.36 93.86 C 329.58 101.75 331.87 110.27 331.39 118.84 C 330.08 124.04 327.62 129.08 324.16 133.18 C 319.54 136.51 313.54 137.04 308.02 137.27 C 302.49 137.36 296.66 136.11 292.69 132.01 C 288.12 138.90 277.08 138.76 271.50 133.18 C 267.51 137.55 260.94 137.90 255.53 136.59 C 254.27 140.40 253.14 144.43 250.63 147.63 C 246.66 151.50 241.07 152.98 235.85 154.32 C 227.10 156.09 217.52 156.77 209.27 152.73 C 205.05 150.71 202.08 146.62 201.15 142.07 C 199.05 131.67 201.75 120.98 205.92 111.43 C 208.90 112.31 211.85 113.29 214.76 114.36 C 212.76 120.62 210.48 127.28 211.91 133.90 C 212.61 137.65 216.86 138.41 220.00 138.96 C 228.14 139.93 236.44 138.70 244.19 136.12 C 243.41 127.68 241.99 119.31 239.97 111.08 C 243.97 108.60 248.02 106.20 252.07 103.80 C 253.23 108.40 253.91 113.13 255.43 117.63 C 257.09 122.84 267.40 122.09 267.12 116.14 C 267.44 113.18 267.62 110.21 267.94 107.25 C 271.28 107.25 274.63 107.25 277.98 107.24 C 278.00 111.51 278.01 115.79 277.99 120.06 C 280.81 121.06 283.81 121.06 286.73 120.48 C 286.31 115.92 285.81 111.37 285.42 106.80 C 289.58 104.70 293.77 102.63 297.93 100.52 C 298.52 105.64 298.83 110.78 299.48 115.89 C 299.76 118.59 302.32 120.41 304.88 120.66 C 309.99 121.34 315.40 121.17 320.24 119.19 C 318.82 113.64 317.11 108.16 314.69 102.96 Z" />
<path fill="#000" opacity="1.00" d=" M 57.60 106.57 C 61.08 103.55 65.68 101.69 69.55 99.05 C 72.20 107.78 73.67 116.89 73.79 126.01 C 74.05 131.45 71.70 136.54 69.23 141.23 C 67.62 144.38 64.18 145.88 61.10 147.20 C 53.15 150.30 44.42 151.57 35.93 150.69 C 29.25 149.89 21.75 146.84 19.43 139.93 C 15.95 128.89 18.84 116.86 23.54 106.60 C 26.44 107.60 29.35 108.58 32.25 109.60 C 30.18 116.38 27.31 123.98 30.10 130.94 C 32.39 133.86 36.66 134.07 40.08 134.49 C 47.37 134.81 54.71 133.73 61.62 131.36 C 60.99 123.00 59.33 114.76 57.60 106.57 Z" />
<path fill="#000" opacity="1.00" d=" M 105.37 142.08 C 109.21 143.61 112.83 145.68 115.94 148.42 C 117.14 146.26 118.40 144.14 119.72 142.06 C 123.98 143.97 128.07 146.38 131.38 149.73 C 129.12 153.24 127.05 156.87 124.82 160.40 C 121.54 158.04 118.09 155.92 114.53 154.01 C 113.27 156.14 111.99 158.26 110.73 160.39 C 106.91 157.84 102.93 155.54 98.99 153.18 C 101.12 149.48 103.29 145.81 105.37 142.08 Z" />
<path fill="#000" opacity="1.00" d=" M 168.51 142.12 C 172.97 143.75 176.94 146.45 180.42 149.65 C 178.18 153.22 176.03 156.83 173.86 160.44 C 170.10 157.79 166.11 155.51 162.15 153.20 C 164.31 149.53 166.45 145.85 168.51 142.12 Z" />
<path fill="#000" opacity="1.00" d=" M 575.65 169.35 C 578.55 167.71 581.43 166.04 584.31 164.35 C 584.36 179.94 584.28 195.53 584.35 211.12 C 584.36 214.22 584.29 217.34 583.87 220.43 C 581.82 235.86 571.90 249.90 558.16 257.15 C 552.86 259.86 547.11 262.16 541.06 262.00 C 533.74 261.75 526.12 262.94 519.13 260.21 C 501.93 254.42 488.60 238.41 486.43 220.33 C 489.22 219.14 491.91 217.71 494.53 216.17 C 495.47 227.87 501.38 239.19 510.92 246.14 C 520.31 253.23 532.88 255.94 544.34 253.16 C 561.48 249.31 575.14 233.32 575.58 215.66 C 575.72 200.22 575.59 184.79 575.65 169.35 Z" />
<path fill="#000" opacity="1.00" d=" M 48.08 171.71 C 49.16 170.62 50.36 169.66 51.61 168.77 C 52.50 174.13 52.56 179.58 52.48 185.00 C 52.52 186.73 52.20 189.01 54.02 190.02 C 56.52 190.61 59.09 189.97 61.60 189.76 C 61.51 187.68 61.39 185.60 61.29 183.53 C 62.43 182.99 63.58 182.46 64.73 181.92 C 65.22 184.39 64.61 187.41 66.30 189.46 C 68.86 191.04 72.01 189.95 74.78 189.66 C 74.66 187.66 74.52 185.67 74.38 183.68 C 75.54 183.05 76.70 182.41 77.87 181.79 C 78.51 184.41 77.50 188.22 80.18 189.87 C 84.24 190.71 88.52 190.35 92.51 189.29 C 91.83 186.90 91.06 184.55 90.16 182.24 C 91.33 181.38 92.50 180.50 93.66 179.63 C 95.04 183.57 96.83 188.35 94.21 192.19 C 92.79 194.69 89.58 194.86 87.04 195.01 C 83.49 194.98 79.43 195.64 76.51 193.10 C 72.80 195.68 67.02 195.99 63.43 193.05 C 59.46 195.86 51.12 196.66 49.43 190.91 C 48.96 184.52 49.46 178.02 48.08 171.71 Z" />
<path fill="#000" opacity="1.00" d=" M 157.85 171.83 C 159.01 171.07 159.78 168.66 161.38 169.29 C 162.87 177.73 162.22 186.40 162.03 194.92 C 161.11 195.13 160.19 195.35 159.28 195.57 C 158.96 187.65 159.31 179.65 157.85 171.83 Z" />
<path fill="#000" opacity="1.00" d=" M 211.69 171.74 C 212.78 170.64 213.87 169.55 214.99 168.48 C 216.75 174.86 215.54 181.51 216.18 188.00 C 216.88 191.18 220.83 190.06 223.16 190.16 C 222.20 187.18 223.03 184.24 224.71 181.72 C 224.07 179.89 225.36 178.22 225.92 176.55 C 229.70 178.89 233.92 180.72 237.07 183.92 C 240.34 187.13 240.01 193.43 235.93 195.80 C 233.12 195.75 230.76 193.83 228.07 193.46 C 224.29 194.61 220.23 195.72 216.29 194.63 C 213.91 193.93 212.76 191.37 212.79 189.05 C 212.68 183.27 212.98 177.42 211.69 171.74 M 225.47 186.71 C 226.35 188.11 228.45 189.70 229.72 187.77 C 231.75 186.24 229.48 184.29 228.57 182.90 C 227.16 183.81 225.64 184.89 225.47 186.71 M 233.53 185.97 C 233.00 187.52 232.49 189.07 232.00 190.62 C 233.32 191.08 234.65 191.55 235.99 192.00 C 236.80 189.51 235.19 187.59 233.53 185.97 Z" />
<path fill="#000" opacity="1.00" d=" M 281.81 172.82 C 285.93 171.45 290.13 170.29 294.30 169.03 C 293.97 170.49 293.64 171.97 293.31 173.44 C 289.85 174.56 286.38 175.64 282.91 176.71 C 285.75 179.30 288.86 181.85 290.48 185.43 C 292.19 188.95 289.87 193.92 285.85 194.37 C 281.40 194.96 275.90 196.26 272.27 192.80 C 266.70 195.69 260.20 195.67 254.09 195.42 C 251.56 195.19 248.19 194.73 247.19 191.98 C 246.06 188.44 247.14 184.73 248.09 181.29 C 248.74 181.55 250.05 182.09 250.70 182.36 C 250.42 184.76 248.51 189.19 252.01 190.05 C 258.09 191.52 264.51 190.68 270.53 189.29 C 270.39 187.35 270.24 185.41 270.12 183.48 C 271.29 182.90 272.46 182.33 273.63 181.75 C 274.28 184.40 273.17 188.39 276.06 189.90 C 279.99 190.83 284.06 189.97 287.97 189.36 C 286.51 184.69 282.34 181.75 278.64 178.89 C 279.13 176.70 279.06 173.48 281.81 172.82 Z" />
<path fill="#000" opacity="1.00" d=" M 352.33 173.22 C 356.63 171.45 361.21 170.49 365.63 169.05 C 365.30 170.54 364.97 172.03 364.64 173.53 C 361.17 174.55 357.71 175.64 354.24 176.65 C 357.69 179.78 361.83 183.10 362.52 188.02 C 362.34 190.54 360.88 193.46 358.19 194.05 C 354.64 195.05 350.83 195.28 347.21 194.54 C 346.24 198.75 343.40 202.92 339.03 204.02 C 336.90 203.94 335.00 202.85 333.08 202.07 C 333.28 201.38 333.67 200.01 333.87 199.33 C 338.17 200.78 342.70 198.04 343.96 193.82 C 343.48 191.14 342.33 188.64 341.39 186.10 C 342.48 185.21 343.57 184.32 344.67 183.44 C 345.84 185.73 345.79 189.69 348.98 190.16 C 352.23 190.25 356.14 190.60 358.97 189.02 C 358.17 184.46 353.21 181.96 350.21 178.72 C 350.30 176.78 350.34 174.24 352.33 173.22 Z" />
<path fill="#000" opacity="1.00" d=" M 130.45 170.78 C 131.71 171.47 132.97 172.17 134.24 172.85 C 133.56 174.01 132.87 175.16 132.18 176.31 C 131.06 175.54 129.95 174.77 128.84 174.01 C 129.38 172.93 129.91 171.85 130.45 170.78 Z" />
<path fill="#000" opacity="1.00" d=" M 316.17 170.69 C 317.41 171.47 318.65 172.26 319.90 173.04 C 319.21 174.10 318.52 175.17 317.84 176.23 C 316.71 175.51 315.59 174.79 314.46 174.07 C 315.03 172.94 315.60 171.81 316.17 170.69 Z" />
<path fill="#000" opacity="1.00" d=" M 150.54 172.06 C 151.85 172.91 153.14 173.77 154.44 174.64 C 153.68 175.83 152.92 177.02 152.16 178.22 C 150.89 177.40 149.63 176.59 148.36 175.79 C 149.08 174.54 149.81 173.30 150.54 172.06 Z" />
<path fill="#000" opacity="1.00" d=" M 74.73 174.11 C 76.04 174.88 77.35 175.66 78.65 176.45 C 77.95 177.71 77.24 178.95 76.54 180.21 C 75.23 179.34 73.92 178.49 72.61 177.64 C 73.32 176.46 74.02 175.29 74.73 174.11 Z" />
<path fill="#000" opacity="1.00" d=" M 126.60 179.06 C 127.30 177.84 128.00 176.63 128.70 175.41 C 130.01 176.18 131.31 176.96 132.62 177.73 C 132.95 177.10 133.62 175.84 133.96 175.21 C 135.26 176.07 136.57 176.93 137.89 177.77 C 137.16 178.94 136.44 180.11 135.71 181.28 C 134.42 180.54 133.13 179.79 131.84 179.05 C 131.47 179.65 130.72 180.86 130.35 181.47 C 129.10 180.66 127.85 179.86 126.60 179.06 Z" />
<path fill="#000" opacity="1.00" d=" M 314.28 175.48 C 315.59 176.21 316.91 176.96 318.24 177.69 C 318.63 177.08 319.42 175.86 319.82 175.25 C 321.07 176.12 322.29 177.05 323.57 177.89 C 322.79 179.02 322.03 180.16 321.25 181.29 C 320.03 180.54 318.82 179.80 317.60 179.07 C 317.20 179.66 316.38 180.84 315.97 181.43 C 314.72 180.66 313.46 179.89 312.21 179.13 C 312.90 177.91 313.59 176.69 314.28 175.48 Z" />
<path fill="#000" opacity="1.00" d=" M 342.08 176.09 C 343.37 176.86 344.66 177.64 345.95 178.42 C 345.24 179.67 344.53 180.92 343.84 182.17 C 342.53 181.36 341.23 180.56 339.93 179.75 C 340.64 178.53 341.36 177.31 342.08 176.09 Z" />
<path fill="#000" opacity="1.00" d=" M 172.00 177.04 C 176.35 179.70 180.77 184.47 179.65 189.94 C 178.49 195.41 171.59 195.94 167.15 194.76 C 164.00 193.26 165.57 189.24 165.55 186.55 C 166.35 186.71 167.15 186.87 167.95 187.04 C 168.00 187.81 168.09 189.34 168.14 190.10 C 171.12 190.72 174.14 190.28 177.06 189.59 C 176.00 186.08 173.41 183.44 170.49 181.35 C 170.99 179.91 171.49 178.47 172.00 177.04 Z" />
<path fill="#000" opacity="1.00" d=" M 262.08 177.13 C 263.42 177.86 264.75 178.59 266.08 179.33 C 265.38 180.61 264.67 181.88 263.97 183.15 C 262.69 182.39 261.42 181.63 260.15 180.86 C 259.77 181.46 259.00 182.66 258.62 183.26 C 257.35 182.48 256.08 181.71 254.81 180.93 C 255.52 179.69 256.23 178.46 256.94 177.23 C 258.23 178.04 259.53 178.85 260.83 179.66 C 261.15 179.03 261.77 177.76 262.08 177.13 Z" />
<path fill="#000" opacity="1.00" d=" M 33.46 177.75 C 34.86 178.50 36.23 179.30 37.58 180.13 C 36.85 181.35 36.11 182.57 35.38 183.80 C 34.09 183.04 32.81 182.28 31.52 181.52 C 32.17 180.26 32.81 179.01 33.46 177.75 Z" />
<path fill="#000" opacity="1.00" d=" M 197.22 188.02 C 197.70 184.15 200.23 180.33 203.89 178.82 C 206.19 178.07 208.00 179.84 209.72 181.03 C 209.04 182.11 208.36 183.19 207.68 184.28 C 204.68 181.74 201.46 184.36 200.15 187.30 C 202.83 188.52 206.09 188.59 208.45 190.40 C 210.56 193.70 207.89 198.33 204.32 199.29 C 199.45 201.04 192.86 202.17 188.75 198.26 C 185.80 193.82 187.80 188.19 189.20 183.55 C 189.89 183.75 191.25 184.15 191.93 184.34 C 191.26 187.48 189.85 190.78 191.02 193.97 C 192.71 196.65 196.44 195.96 199.14 195.96 C 201.25 195.57 204.20 195.70 205.28 193.43 C 202.42 192.19 196.65 192.49 197.22 188.02 Z" />
<path fill="#000" opacity="1.00" d=" M 150.15 182.23 C 151.32 181.37 152.50 180.52 153.70 179.69 C 155.33 184.02 157.02 189.49 153.32 193.29 C 149.60 195.55 144.46 195.60 140.70 193.30 C 138.19 195.51 134.46 195.44 131.87 193.39 C 129.83 194.98 127.31 195.16 124.85 194.71 C 124.26 196.42 124.02 198.37 122.78 199.77 C 119.13 202.48 114.32 203.08 109.89 202.69 C 107.25 202.46 104.41 201.11 103.52 198.44 C 102.16 194.08 103.61 189.54 105.08 185.42 C 105.69 185.64 106.92 186.07 107.53 186.29 C 107.14 189.67 105.15 193.52 107.25 196.71 C 111.59 199.25 116.93 197.70 121.38 196.24 C 121.10 192.46 120.47 188.71 119.68 185.00 C 120.83 184.29 121.98 183.58 123.13 182.88 C 123.99 185.61 123.84 190.66 127.93 190.25 C 131.10 190.27 130.66 186.47 131.23 184.37 C 131.99 184.34 133.50 184.28 134.26 184.25 C 134.36 186.03 133.51 188.05 134.39 189.70 C 135.76 190.54 137.38 190.05 138.88 190.04 C 138.68 187.92 138.47 185.80 138.23 183.68 C 139.44 183.03 140.65 182.37 141.86 181.73 C 142.27 184.29 141.77 187.26 143.35 189.49 C 146.21 191.08 149.54 189.93 152.51 189.29 C 151.85 186.89 151.09 184.53 150.15 182.23 Z" />
<path fill="#000" opacity="1.00" d=" M 323.99 182.24 C 325.16 181.50 326.06 180.02 327.58 180.07 C 329.06 184.29 330.57 189.60 327.58 193.53 C 325.32 195.45 321.60 195.65 319.47 193.43 C 318.25 192.17 317.10 194.19 316.09 194.73 C 313.77 195.51 311.22 194.79 309.46 193.15 C 306.94 195.21 303.60 195.29 300.54 194.67 C 299.55 198.65 296.94 202.57 292.91 203.92 C 290.69 204.27 288.57 203.06 286.62 202.16 C 286.71 201.46 286.89 200.07 286.97 199.38 C 288.96 199.35 291.20 200.20 293.00 199.01 C 294.99 197.89 296.26 195.92 297.50 194.08 C 296.66 191.40 295.77 188.73 294.76 186.11 C 295.76 185.23 296.76 184.36 297.77 183.48 C 299.24 186.23 299.73 191.06 303.97 190.30 C 307.77 191.00 308.69 187.10 309.23 184.27 C 309.95 184.25 311.38 184.23 312.09 184.21 C 312.02 185.80 311.62 187.41 311.94 189.00 C 312.91 190.87 315.93 190.66 317.08 189.07 C 317.61 187.50 317.78 185.84 318.11 184.23 C 318.84 184.24 320.31 184.25 321.05 184.26 C 320.91 185.96 320.77 187.65 320.62 189.35 C 322.33 190.33 324.26 190.30 326.17 190.05 C 325.63 187.39 324.88 184.79 323.99 182.24 Z" />
<path fill="#000" opacity="1.00" d=" M 40.66 183.01 C 41.90 182.35 43.12 181.67 44.33 180.99 C 45.30 186.25 47.37 192.28 44.29 197.24 C 41.46 200.25 36.90 200.79 32.97 200.79 C 29.91 200.88 26.28 200.08 24.79 197.09 C 23.11 192.61 24.61 187.78 26.11 183.48 C 26.71 183.67 27.92 184.06 28.52 184.26 C 28.29 187.66 26.32 191.43 28.20 194.64 C 32.48 197.34 37.98 195.75 42.44 194.29 C 42.13 190.49 41.52 186.72 40.66 183.01 Z" />
<path fill="#000" opacity="1.00" d=" M 383.10 183.03 C 384.97 180.93 388.60 181.81 389.64 184.33 C 390.89 187.01 391.85 190.52 390.14 193.20 C 388.05 197.25 382.36 194.70 379.82 192.35 C 377.82 194.63 374.81 195.50 371.90 194.63 C 370.92 198.71 368.24 202.71 364.06 203.95 C 361.79 204.24 359.78 202.83 357.76 202.05 C 357.97 201.37 358.40 200.01 358.61 199.33 C 363.05 200.90 367.04 197.89 368.85 193.99 C 368.08 191.32 367.18 188.69 366.07 186.14 C 367.17 185.22 368.27 184.30 369.38 183.39 C 370.57 185.80 370.59 190.06 374.05 190.25 C 378.67 190.66 380.34 185.69 383.10 183.03 M 382.18 188.90 C 383.87 190.18 385.95 190.70 388.02 191.06 C 387.66 189.26 387.48 187.21 385.95 185.96 C 384.03 185.68 383.25 187.74 382.18 188.90 Z" />
<path fill="#000" opacity="1.00" d=" M 88.08 197.26 C 89.37 198.12 90.65 198.98 91.94 199.83 C 91.20 201.00 90.47 202.18 89.73 203.35 C 88.45 202.57 87.16 201.80 85.87 201.03 C 86.60 199.77 87.34 198.51 88.08 197.26 Z" />
<path fill="#000" opacity="1.00" d=" M 56.92 201.09 C 57.61 199.85 58.30 198.61 58.99 197.38 C 60.18 198.14 61.37 198.91 62.57 199.68 C 63.24 198.92 63.77 197.98 64.65 197.44 C 65.87 198.14 66.99 199.00 68.12 199.83 C 67.40 201.00 66.68 202.16 65.96 203.33 C 64.70 202.57 63.43 201.80 62.16 201.04 C 61.79 201.66 61.04 202.91 60.66 203.53 C 59.42 202.71 58.17 201.90 56.92 201.09 Z" />
</g>
<g id="#00c8e9ff">
<path fill="#00c8e9" opacity="1.00" d=" M 442.89 54.58 C 455.88 46.97 472.47 45.54 486.36 51.54 C 485.98 54.57 485.78 57.61 485.78 60.66 C 476.38 56.01 465.18 55.07 455.23 58.49 C 441.90 62.69 431.28 74.33 428.28 87.97 C 424.87 102.04 429.95 117.67 440.76 127.24 C 444.93 131.02 450.00 133.56 454.83 136.37 C 465.16 142.28 475.44 148.28 485.76 154.22 C 485.78 157.57 485.81 160.92 485.80 164.27 C 472.36 156.46 458.87 148.72 445.41 140.94 C 442.73 139.39 440.10 137.77 437.63 135.90 C 428.17 128.68 421.57 117.79 419.45 106.09 C 418.77 97.77 418.28 89.04 421.20 81.07 C 424.99 70.04 432.77 60.41 442.89 54.58 Z" />
<path fill="#00c8e9" opacity="1.00" d=" M 500.57 59.04 C 512.05 65.79 523.65 72.32 535.13 79.06 C 537.99 80.73 540.84 82.39 543.72 84.03 C 554.38 90.11 565.01 96.26 575.60 102.48 C 575.56 105.80 575.57 109.11 575.62 112.43 C 562.11 104.64 548.60 96.84 535.10 89.03 C 531.82 87.16 528.63 85.14 525.31 83.34 C 517.08 78.62 508.81 73.95 500.70 69.05 C 500.17 65.74 500.59 62.37 500.57 59.04 Z" />
<path fill="#00c8e9" opacity="1.00" d=" M 584.31 107.39 C 597.55 115.20 610.93 122.77 624.22 130.50 C 626.88 132.03 629.51 133.63 632.00 135.44 C 642.29 143.15 649.64 155.08 650.96 167.95 C 650.79 175.02 651.88 182.34 649.50 189.17 C 645.89 201.39 637.22 211.99 625.98 217.99 C 613.26 225.05 597.34 225.76 583.87 220.43 C 584.29 217.34 584.36 214.22 584.35 211.12 C 592.32 214.88 601.44 216.34 610.13 214.55 C 621.90 212.36 632.48 204.64 638.12 194.08 C 646.05 179.80 644.07 160.76 633.31 148.45 C 628.00 141.88 620.19 138.31 613.08 134.09 C 603.51 128.53 593.92 123.00 584.32 117.48 C 584.33 114.12 584.33 110.75 584.31 107.39 Z" />
<path fill="#00c8e9" opacity="1.00" d=" M 494.57 159.24 C 508.03 167.19 521.65 174.86 535.15 182.75 C 538.04 184.44 540.94 186.12 543.84 187.80 C 551.80 192.31 559.71 196.92 567.66 201.47 C 568.53 202.10 570.07 202.54 569.76 203.97 C 569.86 206.88 569.71 209.80 569.63 212.72 C 558.17 205.99 546.63 199.40 535.14 192.73 C 532.30 191.08 529.46 189.45 526.61 187.84 C 515.95 181.63 505.24 175.50 494.58 169.30 C 494.61 165.95 494.61 162.59 494.57 159.24 Z" />
</g>
<g id="#ffaf89ff">
<path fill="#ffaf89" opacity="1.00" d=" M 591.92 48.86 C 602.26 46.76 613.20 47.85 622.82 52.25 C 637.50 58.74 648.64 72.99 650.88 88.94 C 650.88 96.88 651.97 105.15 649.05 112.75 C 646.08 121.91 640.18 129.94 632.71 135.95 L 632.00 135.44 C 629.51 133.63 626.88 132.03 624.22 130.50 L 625.02 130.76 C 634.11 124.69 640.51 114.81 642.42 104.06 C 643.42 96.12 642.99 87.78 639.50 80.46 C 634.88 70.05 625.70 61.86 614.85 58.42 C 604.48 54.95 592.72 56.07 583.16 61.38 C 569.97 68.87 556.92 76.58 543.72 84.03 C 540.84 82.39 537.99 80.73 535.13 79.06 C 548.61 71.21 562.15 63.50 575.63 55.67 C 578.16 54.21 580.73 52.81 583.42 51.63 C 586.16 50.46 589.06 49.71 591.92 48.86 Z" />
<path fill="#ffaf89" opacity="1.00" d=" M 525.31 83.34 C 528.63 85.14 531.82 87.16 535.10 89.03 C 521.62 96.93 508.04 104.64 494.54 112.48 C 494.54 109.14 494.54 105.80 494.54 102.47 C 504.82 96.75 514.75 90.40 525.21 85.03 C 525.24 84.61 525.29 83.76 525.31 83.34 Z" />
<path fill="#ffaf89" opacity="1.00" d=" M 451.50 127.26 C 462.96 120.68 474.49 114.19 485.82 107.37 C 485.81 110.75 485.80 114.13 485.80 117.51 C 477.19 122.57 468.46 127.41 459.89 132.53 C 456.98 130.94 454.18 129.18 451.50 127.26 Z" />
<path fill="#ffaf89" opacity="1.00" d=" M 437.63 135.90 C 440.10 137.77 442.73 139.39 445.41 140.94 C 437.01 146.46 430.89 155.22 428.48 164.98 C 424.94 178.34 429.08 193.40 438.88 203.14 C 448.99 213.70 465.15 217.91 479.13 213.68 C 485.78 211.80 491.50 207.80 497.48 204.47 C 507.19 198.94 516.74 193.10 526.61 187.84 C 529.46 189.45 532.30 191.08 535.14 192.73 C 521.60 200.55 508.07 208.36 494.53 216.17 C 491.91 217.71 489.22 219.14 486.43 220.33 C 473.83 225.52 458.95 225.09 446.66 219.22 C 430.03 211.42 418.02 193.58 418.98 174.96 C 418.12 159.87 425.79 145.03 437.63 135.90 Z" />
<path fill="#ffaf89" opacity="1.00" d=" M 584.32 154.38 C 592.91 149.29 601.69 144.51 610.18 139.25 C 613.11 140.89 616.04 142.56 618.95 144.25 C 607.53 151.17 595.83 157.62 584.31 164.35 C 581.43 166.04 578.55 167.71 575.65 169.35 C 565.06 175.53 554.37 181.52 543.84 187.80 C 540.94 186.12 538.04 184.44 535.15 182.75 C 548.63 174.87 562.21 167.17 575.69 159.30 C 578.57 157.66 581.45 156.03 584.32 154.38 Z" />
</g>
</svg>
