<svg viewBox="0 0 1583 335" xmlns="http://www.w3.org/2000/svg" xmlns:xlink="http://www.w3.org/1999/xlink"><path fill="rgba(255, 255, 255, 1)" d="M 0 0 C 171.5 0 171.5 1 343 1 L 343 1 L 343 0 L 0 0 Z" stroke-width="0"></path> <path fill="rgba(255, 255, 255, 1)" d="M 342 1 C 417.5 1 417.5 227 493 227 L 493 227 L 493 0 L 342 0 Z" stroke-width="0"></path> <path fill="rgba(255, 255, 255, 1)" d="M 492 227 C 755.5 227 755.5 226 1019 226 L 1019 226 L 1019 0 L 492 0 Z" stroke-width="0"></path><path fill="rgba(255, 255, 255, 1)" d="M 1018 226 C 1116 226 1116 1 1214 1 L 1214 1 L 1214 0 L 1018 0 Z" stroke-width="0"></path><path fill="rgba(255, 255, 255, 1)" d="M 1213 1 C 1398 1 1398 0 1583 0 L 1583 0 L 1583 0 L 1213 0 Z" stroke-width="0"></path></svg>